<?xml version="1.0" encoding="utf-8"?>
<!-- Generator: Adobe Illustrator 24.1.2, SVG Export Plug-In . SVG Version: 6.00 Build 0)  -->
<svg version="1.1" id="Calque_1" xmlns="http://www.w3.org/2000/svg" xmlns:xlink="http://www.w3.org/1999/xlink" x="0px" y="0px"
	 viewBox="0 0 1920 1080" style="enable-background:new 0 0 1920 1080;" xml:space="preserve">
<style type="text/css">
	.st0{fill:#7FCD5E;}
	.st1{display:none;}
	.st2{fill:#51633A;}
</style>
<g>
	<path class="st0" d="M192.35,385.72c-3.05,2.83-5.74,5.54-8.66,7.97c-4.71,3.93-7.37,3.14-8.98-1.3c-3.76-0.55-6.95-0.77-9.92-1.7
		c-0.51-0.16-0.07-3.36-0.07-6.04c-4.86-4.5-4.5-5.56,2.91-8.54c-2.54-2.37-5.57-5.2-8.59-8.02c1.65-1.76,3.31-3.51,5.3-5.63
		c-0.53-0.93-1.92-2.68-2.55-4.67c-0.49-1.54-0.7-4.05,0.16-4.89c0.9-0.88,3.4-0.72,4.92-0.22c1.8,0.6,3.31,2.06,4.41,2.79
		c1.4-1.71,2.72-3.33,4.04-4.95c2.45,2.43,4.91,4.86,7.07,7c0.89-1.61,2.17-3.93,3.46-6.26c1.72,1.56,3.43,3.13,5.53,5.03
		c3.99-1.27,4.79-0.47,5.99,7.3c7.81,0.95,8.78,2.61,5.41,9.82c-1.47,3.15-3.43,6.06-4.93,9.19c-0.58,1.21-0.54,2.73-0.78,4.11
		c0.55,0.19,1.1,0.38,1.66,0.57c4.11-7.95,8.21-15.89,12.5-24.19c-3.12-0.17-6.52,0.68-8.08-0.64c-4.33-3.67-8.01-8.15-11.71-12.52
		c-1.28-1.51-1.94-3.57-2.75-5.44c-0.88-2.02-1.62-4.09-2.41-6.15c2.05-0.46,4.11-0.92,6.71-1.5c2.41-6.87,4.82-6.54,12.84,2.63
		c1.64-0.4,3.2-0.77,5.17-1.25c1.2-3.61-4.14-9.94,3.73-12.19c0.31-3.06,0.31-6.4,1.11-9.53c0.43-1.67,2.26-2.97,3.45-4.44
		c1.26,1.17,2.64,2.24,3.72,3.56c0.81,0.98,1.23,2.27,1.9,3.59c2.54-3.22,4.81-6.36,7.4-9.22c0.85-0.94,2.8-1.87,3.73-1.5
		c1.03,0.41,1.97,2.28,2.05,3.57c0.26,4.09,0.1,8.21,0.1,12.5c6.19,1.14,6.72,2.71,1.99,8.7c-1.03,1.3-2.18,2.5-3.62,4.14
		c4.57,2.38,2.45,4.68,0.04,6.68c0.74,2.13,1.43,4.11,2.34,6.71c1.9,0.68,7.3,0.04,2.67,5.73c1.46,0.65,2.99,0.96,4.01,1.86
		c1.62,1.44,2.9,3.27,4.33,4.94c-1.88,1.22-3.65,2.66-5.66,3.58c-1.44,0.66-3.2,0.62-4.02,0.76c-0.97,2.74-1.74,4.9-2.51,7.07
		c-2.29-1.06-4.58-2.13-7.1-3.3c-3.69,3.33-7.01,1.8-15.43-7.84c-4.48,9.21-8.92,18.34-13.43,27.6c2.79,1.72,4.9,1.8,8.03-0.11
		c5.32-3.24,11.25-5.57,17.12-7.74c1.82-0.67,4.29,0.39,6.46,0.66c-0.83,1.94-1.64,3.89-2.49,5.82c-0.19,0.43-0.52,0.79-0.57,0.87
		c2.51,1.76,4.91,3.46,7.32,5.15c-1.11,1.52-2.21,3.03-2.83,3.89c1.49,4.16,3.16,8.13,4.22,12.25c0.26,1-1.48,2.52-2.74,4.47
		c0.31,1.45,1.29,3.86,1.19,6.23c-0.11,2.46-0.74,5.3-2.21,7.13c-0.62,0.77-3.93-0.61-6.55-1.11c-5.41,4.66-8.49,2.18-13.43-12.15
		c-3.05,2.96-6.17,6.15-9.55,0.38c-0.63,0.6-1.02,1.21-1.57,1.46c-2.08,0.92-5.3,3-6.11,2.31c-1.68-1.42-3.29-4.65-2.8-6.59
		c1.56-6.14,4.11-12.03,6.74-19.28c-1.86,1.18-3.59,1.75-4.5,2.95c-3.71,4.88-7.12,9.98-10.74,14.92c-0.71,0.97-1.9,1.59-3.86,1.78
		c0.73-1.87,1.25-3.88,2.25-5.6c2.41-4.16,4.79-8.38,7.66-12.22C195.53,393.04,195.54,389.83,192.35,385.72z M208.15,393.73
		c10.72,5.41,16.9,10.59,18.74,14.95c-6.63-3.94-13.64-8.11-20.83-12.39c-4.09,7.66-9.91,13.74-7.74,22.09
		c0.74,0.42,1.47,0.85,2.21,1.27c1.65-2.43,3.3-4.85,5.18-7.61c1.86,2.37,3.01,3.83,4.92,6.26c1.75-3.34,3.1-5.93,4.89-9.36
		c0.69,1.93,1.16,3.21,1.61,4.5c1.38,3.89,2.56,7.87,4.24,11.63c0.56,1.25,2.39,1.94,3.63,2.89c0.67-1.3,1.37-2.58,1.99-3.91
		c0.23-0.5,0.26-1.1,0.47-2.11c2.4,2.06,4.35,3.74,6.3,5.41c0.52-0.29,1.04-0.58,1.56-0.88c-1.09-5.01-2.17-10.02-3.32-15.29
		c1.71,0.16,3.17,0.3,4.63,0.43c0.33-0.37,0.66-0.74,0.99-1.11c-3.11-4.18-6.23-8.36-9.52-12.78c2.04-0.32,4.22-0.65,6.39-0.99
		c0.06-0.37,0.12-0.74,0.19-1.11c-3.47-0.89-6.95-1.77-12.24-3.12c3.31-2.37,5.56-3.98,7.8-5.59c-0.33-0.49-0.65-0.97-0.98-1.46
		C222.61,388.07,215.95,390.68,208.15,393.73z M180.16,376.03c0.1,0.3,0.21,0.61,0.31,0.91c-5.14,0.96-10.28,1.91-15.42,2.87
		c0.02,0.56,0.04,1.12,0.07,1.68c2.3,0.39,4.61,0.78,7.36,1.25c-2.06,2.21-3.81,4.08-5.89,6.31c4.63,1.72,11.73-7.78,11.8,4.94
		c4.88-4.01,8.99-7.38,14-11.5c-6.03-6.28-11.84-12.34-18.25-19.01c9.96,3.41,15.87,10.38,21.48,18.46
		c2.36-5.09,4.48-9.69,6.89-14.88c-2.9,0-4.97,0-6.95,0c-0.67-2.92-1.26-5.5-2.19-9.61c-1.44,2.57-2.14,3.83-3.16,5.66
		c-1.35-3.81-2.25-6.33-3.14-8.85c-0.36,0.04-0.73,0.08-1.09,0.12c-0.54,3.67-1.09,7.33-1.82,12.3c-3.17-5.31-5.6-9.4-8.04-13.49
		c-0.44,0.16-0.87,0.33-1.31,0.49c0,2.7,0,5.4,0,8.46c-3.82-2.91-7.14-5.44-10.46-7.97c-0.45,0.48-0.89,0.95-1.34,1.43
		c2.04,3.25,4.08,6.5,6.15,9.8c-2.49,0.87-4.67,1.62-6.85,2.38c-0.01,0.51-0.02,1.03-0.04,1.54
		C168.23,371.56,174.19,373.8,180.16,376.03z M225.48,327.07c0.57,0.25,1.14,0.5,1.7,0.75c-2.01,6.15-4.01,12.3-6.37,19.51
		c5.66-2.3,10.39-4.22,15.11-6.13c-0.12-0.32-0.24-0.63-0.36-0.95c-1.4-0.12-2.79-0.25-4.45-0.39c3.49-4.14,6.73-7.99,9.98-11.84
		c-0.33-0.31-0.66-0.62-0.99-0.93c-2.29,1.04-4.57,2.07-7.63,3.46c1.93-6.77,4.85-12.63,2.16-20.39c-3.57,5.36-6.42,9.65-9.47,14.24
		c-1.89-3.3-3.52-6.13-5.14-8.96c-0.48,0.16-0.95,0.33-1.42,0.49c0.36,5.63,0.72,11.26,1.13,17.66c-2.49-1.72-4.38-3.03-6.28-4.34
		c-0.38,0.22-0.76,0.43-1.14,0.65c1.6,4.79,3.19,9.59,4.79,14.38c0.4-0.1,0.8-0.19,1.2-0.29
		C220.7,338.34,223.09,332.71,225.48,327.07z M239.85,354.24c-0.11-0.38-0.23-0.75-0.34-1.13c-3.01,0.32-6.02,0.64-10.34,1.09
		c2.6-2.4,4.21-3.89,5.82-5.38c-6.34,0.63-12.52,1.3-17.23,6.18c4.86,1.11,9.09,2.08,13.32,3.05c-0.12,0.57-0.23,1.13-0.35,1.7
		c-4.65-0.68-9.29-1.37-13.94-2.05c-0.37,0.7-0.74,1.4-1.11,2.1c3.68,3.75,7.35,7.49,11.03,11.24c0.37-0.34,0.75-0.67,1.12-1.01
		c0.14-1.6,0.27-3.19,0.5-5.82c3.02,2.84,5.44,5.12,7.85,7.39c0.25-0.17,0.49-0.34,0.74-0.51c-0.61-2.15-1.23-4.29-1.94-6.77
		c4-0.27,7.7-0.52,11.4-0.76c0.05-0.57,0.09-1.15,0.14-1.72c-3.75-1.45-7.5-2.9-11.77-4.55
		C236.68,356.11,238.26,355.17,239.85,354.24z M189.69,339.89c-0.34,0.46-0.68,0.93-1.02,1.39c2.61,2.02,5.21,4.04,7.98,6.18
		c-0.41,0.66-1.05,1.67-2.13,3.39c3.86,0.99,7.12,1.82,10.74,2.75c-1.11,1.58-2.17,3.08-3.55,5.04c1.85,0.54,3.26,1.35,4.6,1.25
		c2.21-0.18,4.38-0.95,6.56-1.46c-1.16-1.84-2.05-3.94-3.55-5.44c-1.92-1.92-4.33-3.35-6.53-4.98c0.34-0.45,0.68-0.9,1.03-1.36
		c3.48,2.53,6.96,5.06,11.01,8.02c0.41-5.94-2.61-9.69-6.34-13.91c-0.33,2.15-0.55,3.61-0.81,5.29c-3.66-4.05-7.06-7.81-10.45-11.56
		c-0.41,0.28-0.82,0.56-1.23,0.85c0.11,2.19,0.22,4.37,0.34,6.95C193.86,341.38,191.78,340.64,189.69,339.89z"/>
</g>
<g>
	<path class="st0" d="M513.06,800.21c-6.39-1.92-13.44-2.28-20.4-0.07c-4.76,1.51-5.75-1.74-7.02-4.8
		c-1.31-3.15-1.08-5.63,2.68-7.17c10.68-4.39,23.53-1.44,31.36,7.44c2.17,2.46,10.42,2.84,12.82,0.59
		c14.53-13.58,34.86-9.64,43.4,8.81c2.24,4.84,3.56,10.45,3.85,15.79c0.58,10.6,3.06,20.55,6.92,30.36c1.73,4.39,2.64,9.2,3.22,13.9
		c0.66,5.37-1.9,9.56-6.25,12.76c-1.08,0.79-2.05,2.06-2.51,3.32c-2.83,7.64-9.31,11.15-17.47,9.11c-3.07-0.77-5.6-0.47-8.8,0.53
		c-3.86,1.2-8.99,0.77-12.77-0.84c-4.24-1.81-7.79-5.5-11.28-8.76c-8.37-7.84-16.44-16-24.79-23.86
		c-5.6-5.27-11.19-10.33-12.43-18.6c-1.23-8.23,2.47-17.03,9.34-21.63c1.38-0.93,2.26-2.73,3.15-4.27
		C508.41,808.78,510.61,804.66,513.06,800.21z M513.96,796.12c-1.66-1.4-3.33-2.79-4.99-4.19c-5.87-3.14-11.79-2.45-18.12-0.7
		c1.03,2.34,1.8,4.08,2.57,5.83c0.17-0.48,0.33-0.96,0.5-1.44c6.31,0.58,12.62,1.18,18.93,1.68
		C513.19,797.32,513.59,796.53,513.96,796.12z M586.17,865.09c0.37-0.14,0.75-0.27,1.12-0.41c-1.46-4.35-2.49-8.92-4.47-13.01
		c-4.66-9.61-7.07-19.58-6.94-30.28c0.08-6.75-1.64-13.14-5.4-18.87c-6.52-9.95-18.46-14.32-27.82-10.33
		c4.87,2.53,9.89,5.13,14.9,7.72c-0.17,0.37-0.34,0.75-0.52,1.12c-6.77-2.35-12.62-8.23-20.62-6c13.27,4.06,21.41,12.88,25.29,25.96
		c-6.1-11.36-12.92-21.83-27.57-23.81c4.59,2.64,9.3,4.56,12.97,7.69c3.58,3.05,6.57,7.07,8.95,11.17c2.32,4,3.54,8.64,5.25,13
		c-4.33-5.47-7.36-11.56-11.4-16.89c-6.22-8.21-14.73-12.13-25.27-11.18c-10.42,0.94-16.42,8.53-14.78,18.85
		c1.51,9.52,6.6,16.87,13.74,23.01c1.24,1.07,2.36,2.27,3.54,3.41c-0.46,0.39-0.92,0.77-1.39,1.16
		c-12.75-4.72-17.52-15.63-20.85-28.05c-0.61,1.9-0.84,3.79-0.14,5.21c3.52,7.13,7.29,14.15,10.97,21.2
		c-0.29,0.19-0.57,0.38-0.86,0.57c-4.55-7.63-9.09-15.26-13.65-22.9c-0.23,0.38-1.27,1.38-1.07,1.93c1.92,5.48,4.04,10.88,6.11,16.3
		c-1.75-1.87-3.08-4.04-4.3-6.27c-1.22-2.24-2.32-4.55-3.6-7.08c-3.28,9.36-0.34,17.62,7.83,24.01c6.28,4.91,12.54,9.91,18.3,15.4
		c5.17,4.92,9.4,10.82,14.53,15.79c2.77,2.68,6.54,4.33,9.86,6.45c0.26-0.41,0.51-0.81,0.77-1.22c-1.87-1.72-3.74-3.44-5.61-5.17
		c0.16-0.13,0.32-0.26,0.48-0.39c3.49,2.11,6.98,4.22,10.48,6.33c0.14-0.29,0.29-0.57,0.43-0.86c-4.7-4.49-9.4-8.99-14.1-13.48
		c0.41-0.41,0.82-0.81,1.23-1.22c2.21,2.5,4.43,5,6.64,7.5c0.1-0.09,0.2-0.19,0.3-0.28c-4.32-7.21-8.63-14.41-12.95-21.62
		c0.46-0.35,0.93-0.71,1.39-1.06c1.38,1.23,3.08,2.25,4.09,3.74c2.51,3.7,4.74,7.59,7.03,11.43c3.19,5.36,6.73,10.43,12.91,12.62
		c4.26,1.51,8.66,1.49,12.23-1.66c3.4-2.99,4.4-7,3-11.36c-1.37-4.24-2.88-8.45-4.47-12.61c-2.44-6.39-5.01-12.72-7.52-19.08
		c0.43-0.2,0.87-0.39,1.3-0.59c4,7.87,7.99,15.73,11.99,23.6c0.21-0.09,0.43-0.18,0.64-0.26c-0.67-1.98-1.33-3.96-2-5.95
		c0.5-0.16,0.99-0.32,1.49-0.47c1.69,5.08,3.38,10.16,5.07,15.24c0.45-0.06,0.9-0.11,1.35-0.17c-0.42-3.6-0.83-7.19-1.29-11.14
		C584.68,863.08,585.42,864.09,586.17,865.09z"/>
</g>
<g>
	<path class="st0" d="M1502.56,870.2c-0.62-7.22-1.8-12.82-1.28-18.26c0.29-3.05,2.8-6.82,5.43-8.48c3.1-1.96,6.72,0.19,9.16,3.02
		c2.68,3.11,3.32,7.06,0.79,10.06C1512.77,861.14,1508.02,865,1502.56,870.2z M1504.89,860.97c0.43,0.21,0.86,0.43,1.29,0.64
		c2.2-4.98,4.4-9.96,6.6-14.94c-0.6-0.25-1.19-0.5-1.79-0.75C1506.13,849.75,1506.1,855.61,1504.89,860.97z M1514.6,848.44
		c-2.17,4.49-4.22,8.71-6.36,13.12C1515.39,856.74,1516.79,853.85,1514.6,848.44z"/>
</g>
<path class="st1" d="M513.96,796.12c-5.08-1.44-10.16-2.88-15.23-4.32c-0.01-0.26-0.02-0.53-0.03-0.79
	c3.42,0.31,6.85,0.62,10.27,0.92C510.63,793.33,512.3,794.72,513.96,796.12z"/>
<g>
	<path class="st0" d="M1420.18,171.92c-1.87,6.3-2.3,13.36-0.05,20.28c1.56,4.79-1.58,5.77-4.63,7.1c-3.4,1.48-5.9,1.06-7.46-2.93
		c-4.16-10.62-1.28-23.1,7.43-30.95c2.69-2.43,2.99-10.61,0.47-13.12c-12.06-12.02-10.14-30.33,4.14-40.48
		c6.04-4.3,12.87-6.42,20.06-6.59c11.69-0.28,22.46-3.69,33.27-7.68c4.54-1.68,10.14-3.36,14.45-2.15
		c8.59,2.39,15.84,8.29,20.97,15.47c2.13,2.97,0.73,8.47,0.91,12.83c0.06,1.39-0.54,3.14,0.09,4.1c3.84,5.84,2.7,11.56-0.61,16.85
		c-2.25,3.61-5.39,6.71-8.35,9.82c-7.79,8.2-15.79,16.2-23.53,24.45c-5.27,5.62-10.3,11.24-18.59,12.48
		c-8.34,1.24-16.96-2.37-21.64-9.32c-0.93-1.39-2.74-2.27-4.28-3.15C1428.79,176.6,1424.68,174.4,1420.18,171.92z M1416.15,171.03
		c-1.41,1.67-2.83,3.34-4.24,5.01c-3.18,5.78-2.27,11.69-0.94,18.06c2.34-0.94,4.23-1.71,6.13-2.47c-0.5-0.19-1-0.38-1.5-0.58
		c0.6-6.31,1.22-12.62,1.75-18.94C1417.37,171.79,1416.56,171.39,1416.15,171.03z M1443.41,183.89c3.07,2.73,6.17,0.14,9.12-1.07
		c3.09-1.26,5.95-3.1,8.91-4.68c0.2,0.37,0.4,0.74,0.61,1.11c-4.45,2.48-8.9,4.96-13.42,7.49c8.74,2.99,17.58,0.66,23.08-7.26
		c8.08-11.62,17.87-21.45,28.69-30.4c6.19-5.13,11.13-10.86,7.67-19.94c-3.98,5.92-8.23,11.93-15.6,14.49
		c3.05-2.66,6.11-5.31,9.16-7.97c-0.11-0.07-0.22-0.14-0.33-0.22c-7.25,4.35-14.5,8.7-21.75,13.05c-0.37-0.51-0.74-1.02-1.11-1.54
		c1.43-1.49,2.65-3.28,4.32-4.41c3.57-2.42,7.69-4.1,10.99-6.81c4.4-3.61,8.9-7.45,12.1-12.07c2.57-3.71,2.2-8.75-0.99-12.6
		c-3.05-3.68-7.19-4.69-11.73-3.22c-4.24,1.38-8.43,2.96-12.6,4.55c-6.32,2.4-12.6,4.88-18.9,7.33c-0.19-0.44-0.37-0.88-0.56-1.32
		c7.8-3.96,15.6-7.92,23.4-11.87c-0.11-0.22-0.23-0.44-0.34-0.67c-1.91,0.68-3.82,1.35-5.73,2.03c-0.17-0.5-0.34-0.99-0.51-1.49
		c5.11-1.7,10.23-3.4,15.34-5.1c-0.03-0.39-0.05-0.79-0.08-1.18c-3.66,0.35-7.33,0.7-11.1,1.07c0.98-0.81,2.03-1.68,3.08-2.55
		c-4.25,0.42-8.38,1.19-12.02,2.97c-10.35,5.05-21.1,7.61-32.67,7.6c-9.72-0.01-18.16,3.66-24.51,11.38
		c-5.25,6.38-6.76,16.19-3.58,21.34c2.39-4.57,4.89-9.36,7.39-14.15c-6.07,18.18-6.07,18.18-4.1,20.63
		c3.59-13.24,12.42-21.22,25.04-25.4c-4.83,3.76-10.16,6.96-14.91,10.87c-5.14,4.23-7.68,10.13-8.42,15.29
		c3.63-4.81,7.36-11.07,12.37-16.05c5.22-5.19,12.21-7.87,20.65-9.11c-6.58,3.92-12.52,6.87-17.78,10.74
		c-8.46,6.23-12.55,14.77-11.63,25.53c0.89,10.39,8.52,16.52,18.78,14.87c9.5-1.53,16.9-6.56,23.07-13.7
		c1.08-1.25,2.26-2.42,3.39-3.63c-0.28,7.18-4.27,11.83-9.66,14.86c-5.34,3.01-11.28,4.97-16.95,7.4c1.6,0.55,3.53,0.83,4.97,0.13
		c7.15-3.51,14.17-7.28,21.24-10.95c0.19,0.28,0.37,0.56,0.56,0.84C1458.85,174.61,1451.34,179.12,1443.41,183.89z"/>
	<path class="st0" d="M1416.15,171.03c-1.46,5.12-2.91,10.24-4.37,15.36c-0.25,0.02-0.5,0.03-0.75,0.05
		c0.29-3.47,0.59-6.93,0.88-10.4C1413.32,174.37,1414.73,172.7,1416.15,171.03z"/>
</g>
<g>
	<path class="st0" d="M1623.91,745.02c5.57,2.45,10.88,4.78,16.72,7.36c-3.04,2.54-3.04,2.54-13.13-1.01
		c1.29,3.7,2.59,7.42,3.89,11.14c-0.68,0.37-1.36,0.73-2.04,1.1c-2.35-3.84-4.69-7.69-7.22-11.82c-0.12,2.49-0.22,4.71-0.33,6.92
		c-0.31,0.17-0.63,0.33-0.94,0.5c-1.09-1.55-2.19-3.11-3.29-4.66c-0.53,2.8-0.85,5.66-1.7,8.36c-0.27,0.87-1.94,1.3-2.98,1.93
		c-0.42-1-1.29-2.07-1.17-3c0.49-3.85,1.28-7.65,2-11.66c-8.74,2.95-17.83,4.3-27.07,1.88c-17.3-4.53-25.45-19.59-19.82-36.47
		c1.2-3.6,2.51-7.2,4.16-10.62c6.89-14.28,7.08-28.36-1.38-42.56c1.57-0.24,2.66-0.35,3.71-0.59c0.92-0.21,1.8-0.59,3-1
		c6.49,15.91,19.75,22.07,35.24,25.17c5.35,1.07,10.65,2.47,15.89,4.02c14.87,4.39,20.51,15.06,15.98,29.92
		C1640.09,730.89,1632.99,738.95,1623.91,745.02z M1578.11,668.91c-0.33,0.25-0.66,0.49-0.99,0.74c0,0.64-0.17,1.33,0.03,1.9
		c3.67,10.79,2.37,21.23-2,31.52c-1.94,4.57-3.85,9.17-5.38,13.89c-4.68,14.49,1.92,27.15,16.37,31.78c21.79,6.98,49.96-9.2,55-31.6
		c2.89-12.84-1.5-20.45-14.06-24.27c-2.38-0.72-4.79-1.33-7.19-1.96C1604.27,686.88,1587.37,685.4,1578.11,668.91z"/>
	<path class="st0" d="M1601.89,746.03c-1.54-2.41-3.37-5.09-5.01-7.89c-7.21-12.26-13.56-37.08-11.95-49.14
		c1.03,5.94,1.46,12.06,3.21,17.78c3.13,10.22,6.99,20.23,10.69,30.27c1.43,3.9,3.88,5.32,8.45,4.11c10.34-2.74,10-2.32,7.23-12.17
		c-2.97-10.54-10.81-18.13-17.44-26.39c-1.12-1.4-2.21-2.83-3.87-4.96c10.85,6.25,23.4,26.04,25.19,39.04
		c1.03-0.54,1.99-1.04,3.24-1.7C1617.86,742.9,1608.22,740.17,1601.89,746.03z"/>
	<path class="st0" d="M1580.91,698.19c-3.24,17.21-6.12,34.33,10.29,47.39C1576.63,740.59,1571.55,717.37,1580.91,698.19z"/>
	<path class="st0" d="M1604.97,690.17c7.97,3.75,16.34,6.83,23.78,11.43c6.86,4.25,10.37,11.14,8.19,19.67
		c-0.51,1.99-1.82,3.78-3.39,5.51c3.71-9.11,2.96-17.15-5.19-23.13c-3.81-2.79-8.34-4.63-12.61-6.75c-3.76-1.87-7.62-3.54-11.43-5.3
		C1604.53,691.12,1604.75,690.65,1604.97,690.17z"/>
	<path class="st0" d="M1591.99,686.06c7.74,5.35,15.85,10.25,23.06,16.23c4.17,3.46,7.02,8.58,10.15,13.17
		c0.87,1.28,0.62,3.32,0.8,4.47c-3.23-4.71-6.07-10.12-10.11-14.38c-3.69-3.9-8.71-6.52-13.09-9.77c-3.93-2.92-7.78-5.95-11.66-8.93
		C1591.43,686.59,1591.71,686.33,1591.99,686.06z"/>
</g>
<g>
	<path class="st2" d="M471.66,199.97c-8.85,0.1-16.26-7.13-16.41-16.02c-0.2-12.21,6.65-20.81,16.66-20.92
		c9.46-0.1,16.72,7.63,16.83,17.93C488.86,191.5,481.35,199.86,471.66,199.97z M485.76,181.32c0.1-8.45-6.08-15.15-13.91-15.08
		c-7.85,0.08-13.86,6.88-13.93,15.76c-0.06,8.55,5.48,14.78,13.3,14.97C479.35,197.18,485.65,190.4,485.76,181.32z"/>
	<path class="st2" d="M477.9,175.22c-1.75,3.43-1.08,4.45,4.96,4.69c-3.14,1.59-8.14,2.11-3.27,6.63c-5.62-1.41-4.22,1.37-2.31,4.43
		c-1.97-0.98-3.6-2.5-4.94-2.28c-1.53,0.25-2.81,2.05-3.95,2.97c0.15-4.76-0.52-5.53-5.61-5.29c3.74-2.77,4.3-5.79,2.3-8.23
		c2.15-2.02,4.23-3.98,5.9-5.55C472.7,173.24,475.18,174.18,477.9,175.22z M477.27,181.54c-2.41-2.34-4.48-4.99-4.97-4.72
		c-1.9,1.04-4.01,2.77-4.62,4.7c-0.34,1.07,2.34,4.42,3.33,4.28C472.9,185.55,474.55,183.54,477.27,181.54z"/>
</g>
<g>
	<path class="st2" d="M1581.88,371.03c9.46-0.12,16.73,7.59,16.87,17.89c0.14,10.53-7.36,18.91-17.05,19.05
		c-8.86,0.12-16.27-7.09-16.44-15.99C1565.02,379.79,1571.87,371.16,1581.88,371.03z M1567.93,390.2c0,8.52,5.65,14.7,13.49,14.78
		c8.12,0.09,14.36-6.81,14.34-15.86c-0.01-8.28-5.92-14.74-13.61-14.88C1574.15,374.1,1567.92,381.09,1567.93,390.2z"/>
	<path class="st2" d="M1575.08,386.15c2.17-2.04,4.25-4.01,5.89-5.56c1.75,0.66,4.23,1.59,6.67,2.5c-1.47,3.42-0.71,4.56,5.23,4.83
		c-3.12,1.59-8.25,2.06-3.37,6.58c-5.63-1.47-3.95,1.5-2.32,4.41c-1.87-0.93-3.5-2.44-4.85-2.23c-1.52,0.24-2.79,2.05-3.94,2.98
		c0.18-4.66-0.59-5.55-5.73-5.33C1576.74,391.61,1576.97,388.55,1575.08,386.15z M1587.27,389.49c-2.43-2.32-4.51-4.94-5-4.67
		c-1.9,1.04-4,2.8-4.59,4.72c-0.33,1.06,2.38,4.39,3.36,4.25C1582.93,393.53,1584.56,391.51,1587.27,389.49z"/>
</g>
<g>
	<path class="st2" d="M217.69,843.86c-1.06,13.33-12.48,22.22-23.71,18.11c-6.46-2.36-10.77-8.53-10.73-15.34
		c0.06-9.7,4.17-16.93,11.12-19.56c6.44-2.43,13.97-0.84,17.97,4.81C214.81,835.38,215.95,839.84,217.69,843.86z M185.93,844.94
		c-0.09,8.76,5.69,15.09,13.73,15.04c7.92-0.05,13.96-6.72,14.11-15.6c0.14-8.44-6.02-15.17-13.85-15.14
		C192.07,829.28,186.02,836.07,185.93,844.94z"/>
	<path class="st2" d="M196.06,856.06c0.63-6.03-0.17-6.95-5.17-6.52c3.42-2.89,4.61-5.87,2.03-8.49c2.1-1.84,4.24-3.72,6.26-5.5
		c1.37,0.59,3.78,1.62,6.38,2.74c-1.17,2.67-1.28,5.72,5.31,4.28c-5.66,2.28-6.22,3.61-3.55,6.97c-4.21-0.72-4.29-0.59-2.72,4.38
		C200.55,850.13,199.38,850.32,196.06,856.06z M204.99,844.42c-2.09-2.14-3.41-3.49-4.74-4.84c-1.61,1.59-4.07,2.97-4.54,4.84
		c-0.29,1.18,2.28,4.21,3.77,4.36C200.92,848.94,202.62,846.43,204.99,844.42z"/>
</g>
<g>
	<path class="st0" d="M998,917.94c0.67-13.19,4.4-28.56,17.44-40.12c11.03-9.77,25.41-12.01,37.8-4.25
		c12.14,7.61,24.67,13.7,38.14,18.7c18.7,6.94,25.71,23.48,19.59,43.05c-7.9,25.25-25.68,38.82-51.7,41.43
		c-19.64,1.97-43.16-7.56-54.76-28.66C1000.44,940.69,998,930.9,998,917.94z M1001.02,920.72c1.16,6.16,1.64,12.55,3.6,18.45
		c6.95,20.87,27.25,34.81,49.69,34.73c24.41-0.09,45.07-14.47,52.67-36.84c6.99-20.56-0.43-38.94-23.19-44.41
		c-6.46-1.55-12.51-5.07-18.51-8.14c-4.41-2.26-8.34-5.44-12.66-7.9c-12.4-7.07-26.38-5.2-36.57,4.85
		C1005.14,892.22,1001.98,905.88,1001.02,920.72z"/>
	<path class="st0" d="M1007.84,921.56c1.57-5.33,3.14-14.28,6.84-22.25c4.55-9.79,13.82-14.48,24.22-16.39
		c5.61-1.03,10.47,1.21,14.54,5.06c7.59,7.16,7.31,15.05-0.66,21.75c-3.05,2.56-6.23,5.02-8.98,7.88c-3.58,3.72-4.88,8.18-3.02,13.3
		c0.62,1.7,0.93,3.52,1.39,5.28c1.77,6.8-0.48,12.91-6.06,16.45c-5.66,3.6-12.04,3.08-17.53-1.5
		C1010.45,944.34,1008.84,934.92,1007.84,921.56z M1040.72,885.44c-9.73,2.49-18.18,6-22.78,15.11c-4.65,9.22-6.6,19.18-5.8,29.43
		c0.59,7.54,2.65,14.79,9.48,19.45c4.06,2.77,8.41,3.15,12.64,0.5c4.24-2.66,5.86-6.63,4.85-11.59c-0.37-1.78-0.65-3.6-1.21-5.32
		c-2.82-8.57,0.08-15.27,6.67-20.77c2.55-2.13,5.39-3.93,7.82-6.18c5.42-5.02,4.97-12.5-1.28-16.46
		C1047.98,887.62,1044.15,886.77,1040.72,885.44z"/>
	<path class="st0" d="M1098.65,926.96c-0.25,9.84-2.55,18.54-7.88,26.31c-6.28,9.15-18.78,14.33-28.66,11.86
		c-12.35-3.08-17.29-17.04-9.59-27.17c1.51-1.98,3.13-3.89,4.83-5.71c3.69-3.95,4.57-8.6,4.14-13.83c-0.3-3.6-0.58-7.37,0.14-10.86
		c1.17-5.69,5.2-9.53,10.86-10.31c7.25-1,13.88,1.09,18.79,6.96C1096.9,910.94,1098.25,919.08,1098.65,926.96z M1096.78,928.02
		c-2.17-6.87-3.41-13.45-6.27-19.22c-3.75-7.55-12.29-10.79-18.84-8.44c-6.39,2.29-8.85,7.93-7.19,17.59
		c0.97,5.63-0.24,10.51-3.6,14.99c-2.28,3.05-4.98,5.87-6.76,9.19c-5.11,9.53,1.41,20.66,12.17,20.38
		c9.72-0.25,18.61-3.42,22.98-12.98C1092.39,942.73,1094.27,935.36,1096.78,928.02z"/>
	<path class="st0" d="M1045.08,931.81c-2.45-4.38-0.11-11.62,4.63-13.91C1048.23,922.34,1046.53,927.44,1045.08,931.81z"/>
	<path class="st0" d="M1033.28,919.9c-4.82,2.12-8.96,0.85-12.77-1.63c-0.91-0.59-1.63-2.75-1.24-3.72
		c0.41-1.05,2.38-2.33,3.39-2.13C1027.05,913.29,1031.13,914.94,1033.28,919.9z"/>
	<path class="st0" d="M1040.59,908.65c-4.61-1.7-7.3-4.83-8.67-8.99c-0.36-1.08,0.2-3.36,0.98-3.72c1.17-0.55,3.39-0.46,4.32,0.34
		C1040.86,899.44,1041.46,903.68,1040.59,908.65z"/>
	<path class="st0" d="M1033.81,934.54c-2.36,2.26-4.49,4.88-7.19,6.59c-1.01,0.64-3.36-0.83-5.09-1.34
		c0.54-1.52,0.64-3.81,1.71-4.41c2.76-1.57,5.94-2.4,8.95-3.52C1032.73,932.75,1033.27,933.64,1033.81,934.54z"/>
	<path class="st0" d="M1068.2,919.71c1.82-6.42,6.39-10.34,11.5-9.71c1.41,0.17,3.17,1.26,3.83,2.45c0.45,0.82-0.42,2.79-1.25,3.8
		C1079.6,919.53,1074.22,920.78,1068.2,919.71z"/>
	<path class="st0" d="M1064.27,938.67c2.84,4.3,5.56,7.62,7.34,11.38c1.3,2.73,1.22,6.23-2.42,7.6c-3.55,1.34-5.29-1.39-6.24-4.11
		C1061.41,949.1,1059.39,944.47,1064.27,938.67z M1065.07,943.34c-0.51,0.17-1.02,0.33-1.53,0.5c0.61,3.05,1.05,6.15,1.95,9.1
		c0.26,0.85,1.88,1.28,2.87,1.91c0.29-1.16,1.12-2.53,0.76-3.44C1068.02,948.62,1066.45,946.01,1065.07,943.34z"/>
	<path class="st0" d="M1069.28,929.23c4.26,0.38,8.73,0.15,12.7,1.44c1.78,0.57,2.56,4.2,3.8,6.44c-2.2,0.59-4.82,2.24-6.5,1.56
		c-3.89-1.58-7.32-4.29-10.94-6.54C1068.66,931.16,1068.97,930.2,1069.28,929.23z M1074.77,931.23c-0.29,0.67-0.59,1.34-0.88,2
		c2.84,1.15,5.67,2.3,8.51,3.45c0.31-0.81,0.62-1.62,0.92-2.42C1080.47,933.24,1077.62,932.23,1074.77,931.23z"/>
</g>
</svg>
