<?xml version="1.0" encoding="utf-8"?>
<!-- Generator: Adobe Illustrator 24.1.2, SVG Export Plug-In . SVG Version: 6.00 Build 0)  -->
<svg version="1.1" id="Calque_1" xmlns="http://www.w3.org/2000/svg" xmlns:xlink="http://www.w3.org/1999/xlink" x="0px" y="0px"
	 viewBox="0 0 1920 1188" style="enable-background:new 0 0 1920 1188;" xml:space="preserve">
<style type="text/css">
	.st0{fill:#303030;}
</style>
<path class="st0" d="M1920,729.33c0-243.11,0-486.22,0-729.33C1280,0,640,0,0,0c0,276,0,552,0,828
	c12.34,12.73,24.48,25.66,37.07,38.14c52.67,52.22,110.68,97.32,176.8,131.45c58.59,30.24,121.09,48.05,185.97,58.41
	c68.67,10.97,137.94,12.29,207.24,13.44c3.51,0.06,8.87-1.66,7.41,6.42c-7.31,0-14.77-0.28-22.19,0.05
	c-42.13,1.86-84.27,5.48-126.39,5.36c-41.47-0.12-82.63-5.85-122.4-18.78c-1.39-0.45-2.71-1.09-4.41-1.78
	c30.32,5.97,60.24,11.86,90.16,17.76c0.16-0.68,0.32-1.36,0.48-2.03c-80.78-13.98-158.36-37.59-231.59-74.94
	c9.59,4.95,19.09,10.08,28.78,14.81c9.76,4.77,19.65,9.3,29.59,13.69c10.12,4.46,20.37,8.62,30.19,14.12
	c-2.71-0.89-5.45-1.69-8.11-2.68C172,1001.88,81.16,939.17,4.7,855.29c-1.48-1.62-3.13-3.09-4.7-4.62c0,24.44,0,48.89,0,73.33
	c55.47,53.57,116.65,99.25,185.42,134.48c78.27,40.09,161.1,65.15,248.28,76.4c99.48,12.84,198.59,8.68,297.61-5
	c126.66-17.5,249.91-49.39,371.64-87.78c10.58-3.34,21.16-6.66,31.74-10c0.4-0.13,0.73-0.47,1-1.13
	c-107.07,27.35-214.07,54.99-322.98,74.17c56.91-15.38,113.82-30.75,170.74-46.13c-0.13-0.49-0.25-0.99-0.38-1.48
	c-43.84,9.83-87.69,19.65-131.53,29.48c-0.13-0.52-0.26-1.05-0.39-1.57c23.33-6.28,46.66-12.56,70.05-18.86
	c-16.13,0.46-32.02,1.46-47.89,1.17c-9.91-0.18-19.82-2.11-29.65-3.74c-2.27-0.38-4.21-2.74-6.31-4.19
	c1.79-2.01,3.21-4.88,5.46-5.86c5.04-2.2,10.45-3.6,15.77-5.08c93.49-25.88,187.11-51.29,280.45-77.71
	c70.27-19.89,140.18-41.06,210.25-61.66c0.78-0.23,1.58-0.44,2.09-2.16c-7.63,1.39-15.4,2.29-22.88,4.24
	c-71.11,18.49-142.19,37.14-213.26,55.79c-28.34,7.44-56.66,14.97-85,22.45c-1.68,0.44-3.41,0.72-5.53-0.18
	c14.54-5.05,29.07-10.1,43.61-15.14c-0.1-0.39-0.2-0.78-0.3-1.16c-21.79,5.07-43.65,9.86-65.36,15.28
	c-32.29,8.07-64.17,18.17-96.78,24.54c-51.4,10.03-103.24,17.87-154.95,26.28c-53.53,8.7-107.25,15.88-161.63,15.88
	c-74.91-0.01-148.25-10.85-219.97-32.51c-1.68-0.51-3.31-1.15-4.78-2.62c1.46,0.25,2.96,0.37,4.38,0.76
	c83.76,23.09,169.29,29.07,255.57,24.43c50.09-2.69,100.2-6.79,149.97-12.96c59.53-7.37,117.84-21.76,175.8-37.16
	c64.37-17.1,128.26-36.17,193.08-51.33c63.09-14.75,123.73-37.01,185.62-55.35c101.81-30.17,204.27-57.63,308.69-77.27
	c81.5-15.33,163.55-26.41,246.46-30.29c11.96-0.56,23.94-0.67,35.91-0.99c0-6.22,0-12.44,0-18.67c-21.74,0.24-43.5-0.13-65.21,0.83
	c-127.08,5.64-251.13,30.2-373.97,61.47c-90.76,23.1-181.12,47.82-271.67,71.76c-23.14,6.12-46.34,12-69.87,16.89
	c3.68-1.17,7.33-2.45,11.05-3.48c108.01-29.88,215.75-60.81,324.13-89.29c100.55-26.43,202.47-46.92,306-57.72
	c46.34-4.84,93.01-6.61,139.53-9.78c0-1.78,0-3.56,0-5.33c-11.94-0.27-23.91-1.09-35.83-0.73c-71.35,2.18-142.21,9.86-212.79,20.15
	c-41.08,5.99-82.08,12.49-123.13,18.72c-1.94,0.29-3.93,0.27-6.09-0.78c16.88-3.56,33.66-7.76,50.66-10.56
	c45.78-7.52,92.03-12.66,137.34-22.31c25.71-5.47,51.35-6.68,77.12-8.56c26.12-1.91,52.36-2.2,78.55-3.22c0.59-0.02,1.17-0.3,3.71-1
	c-9.61-2.27-17.46-4.13-25.3-5.98c0.07-0.48,0.15-0.96,0.22-1.44C1882.98,730.43,1901.49,729.88,1920,729.33z M370.45,1112.18
	c134.37,27.99,268.71,21,403.17,0.25C639.34,1141.07,504.9,1150.79,370.45,1112.18z M815.04,1093.77
	c-128.61,30.04-257.79,46.09-388.93,17.01c64.79,8.59,129.77,10.36,194.96,6.58C686.26,1113.57,750.83,1104.78,815.04,1093.77z
	 M897.79,977.22c-3.18,0.96-6.4,1.82-9.61,2.7c-69.4,19.2-139.47,35.32-210.87,45.11c-69.72,9.56-139.7,13.76-210,8.06
	c-37.67-3.06-75.06-8.37-111.73-17.65c-15.33-3.88-30.25-9.38-45.35-14.14c0.2-0.57,0.39-1.14,0.59-1.72
	c21.3,5.21,42.6,10.41,63.9,15.62c65.03,15.93,131.11,20.62,197.78,17.66c72.1-3.21,143.02-14.99,213.29-30.99
	c14.45-3.29,28.86-6.76,43.31-11.06c-0.96-0.17-1.92-0.35-2.88-0.52c-0.11-0.53-0.22-1.06-0.32-1.59
	c26.89-5.36,53.77-10.71,80.66-16.07c0.14,0.53,0.28,1.07,0.42,1.6C903.91,975.24,900.87,976.29,897.79,977.22z M927.33,967.57
	c-0.17-0.66-0.33-1.32-0.5-1.98c21.85-6.36,43.7-12.72,65.55-19.08c0.14,0.39,0.28,0.79,0.42,1.18c-7.29,2.46-14.57,4.91-21.86,7.37
	c0.09,0.31,0.19,0.61,0.28,0.92c21.39-5.36,42.79-10.72,64.18-16.08C999.65,950.29,964.07,961.39,927.33,967.57z"/>
</svg>
