<?xml version="1.0" encoding="utf-8"?>
<!-- Generator: Adobe Illustrator 24.1.2, SVG Export Plug-In . SVG Version: 6.00 Build 0)  -->
<svg version="1.1" id="Calque_1" xmlns="http://www.w3.org/2000/svg" xmlns:xlink="http://www.w3.org/1999/xlink" x="0px" y="0px"
	 viewBox="0 0 1920 1188" style="enable-background:new 0 0 1920 1188;" xml:space="preserve">
<style type="text/css">
	.st0{fill:#303030;}
</style>
<path class="st0" d="M0,458.67C0,701.78,0,944.89,0,1188c640,0,1280,0,1920,0c0-276,0-552,0-828
	c-12.34-12.73-24.48-25.66-37.07-38.14c-52.67-52.22-110.68-97.32-176.8-131.45c-58.59-30.24-121.09-48.05-185.97-58.41
	c-68.67-10.97-137.94-12.29-207.24-13.44c-3.51-0.06-8.87,1.66-7.41-6.42c7.31,0,14.77,0.28,22.19-0.05
	c42.13-1.86,84.27-5.48,126.39-5.36c41.47,0.12,82.63,5.85,122.4,18.78c1.39,0.45,2.71,1.09,4.41,1.78
	c-30.32-5.97-60.24-11.86-90.16-17.76c-0.16,0.68-0.32,1.36-0.48,2.03c80.78,13.98,158.36,37.59,231.59,74.94
	c-9.59-4.95-19.09-10.08-28.78-14.81c-9.76-4.77-19.65-9.3-29.59-13.69c-10.12-4.46-20.37-8.62-30.19-14.12
	c2.71,0.89,5.45,1.69,8.11,2.68c106.59,39.53,197.43,102.25,273.89,186.13c1.48,1.62,3.13,3.09,4.7,4.62c0-24.44,0-48.89,0-73.33
	c-55.47-53.57-116.65-99.25-185.42-134.48c-78.27-40.09-161.1-65.15-248.28-76.4c-99.48-12.84-198.59-8.68-297.61,5
	c-126.66,17.5-249.91,49.39-371.64,87.78c-10.58,3.34-21.16,6.66-31.74,10c-0.4,0.13-0.73,0.47-1,1.13
	c107.07-27.35,214.07-54.99,322.98-74.17c-56.91,15.38-113.82,30.75-170.74,46.13c0.13,0.49,0.25,0.99,0.38,1.48
	c43.84-9.83,87.69-19.65,131.53-29.48c0.13,0.52,0.26,1.05,0.39,1.57c-23.33,6.28-46.66,12.56-70.05,18.86
	c16.13-0.46,32.02-1.46,47.89-1.17c9.91,0.18,19.82,2.11,29.65,3.74c2.27,0.38,4.21,2.74,6.31,4.19c-1.79,2.01-3.21,4.88-5.46,5.86
	c-5.04,2.2-10.45,3.6-15.77,5.08c-93.49,25.88-187.11,51.29-280.45,77.71c-70.27,19.89-140.18,41.06-210.25,61.66
	c-0.78,0.23-1.58,0.44-2.09,2.16c7.63-1.39,15.4-2.29,22.88-4.24c71.11-18.49,142.19-37.14,213.26-55.79
	c28.34-7.44,56.66-14.97,85-22.45c1.68-0.44,3.41-0.72,5.53,0.18c-14.54,5.05-29.07,10.1-43.61,15.14c0.1,0.39,0.2,0.77,0.3,1.16
	c21.79-5.07,43.65-9.86,65.36-15.28c32.29-8.07,64.17-18.17,96.78-24.54c51.4-10.03,103.24-17.87,154.95-26.28
	c53.53-8.7,107.25-15.88,161.63-15.88c74.91,0.01,148.25,10.85,219.97,32.51c1.68,0.51,3.31,1.15,4.78,2.62
	c-1.46-0.25-2.96-0.37-4.38-0.76c-83.76-23.09-169.29-29.07-255.57-24.43c-50.09,2.69-100.2,6.79-149.97,12.96
	c-59.53,7.37-117.84,21.76-175.8,37.16c-64.37,17.1-128.26,36.17-193.08,51.33c-63.09,14.75-123.73,37.01-185.62,55.35
	c-101.81,30.17-204.27,57.63-308.69,77.27c-81.5,15.33-163.55,26.41-246.46,30.29C23.95,407.57,11.97,407.68,0,408
	c0,6.22,0,12.44,0,18.67c21.74-0.24,43.5,0.13,65.21-0.83c127.08-5.64,251.13-30.2,373.97-61.47
	c90.76-23.1,181.12-47.82,271.67-71.76c23.14-6.12,46.34-12,69.87-16.89c-3.68,1.17-7.33,2.45-11.05,3.48
	c-108.01,29.88-215.75,60.81-324.13,89.29c-100.55,26.43-202.47,46.92-306,57.72C93.18,431.05,46.52,432.83,0,436
	c0,1.78,0,3.56,0,5.33c11.94,0.27,23.91,1.09,35.83,0.73c71.35-2.18,142.21-9.86,212.79-20.15c41.08-5.99,82.08-12.49,123.13-18.72
	c1.94-0.29,3.93-0.27,6.09,0.78c-16.88,3.56-33.66,7.76-50.66,10.56c-45.78,7.52-92.03,12.66-137.34,22.31
	c-25.71,5.47-51.35,6.68-77.12,8.56c-26.12,1.91-52.36,2.2-78.55,3.22c-0.59,0.02-1.17,0.3-3.71,1c9.61,2.27,17.46,4.13,25.3,5.98
	c-0.07,0.48-0.15,0.96-0.22,1.44C37.02,457.57,18.51,458.12,0,458.67z M1549.55,75.82c-134.37-27.99-268.71-21-403.17-0.25
	C1280.66,46.93,1415.1,37.21,1549.55,75.82z M1104.96,94.23c128.61-30.04,257.79-46.09,388.93-17.01
	c-64.79-8.59-129.77-10.36-194.96-6.58C1233.74,74.43,1169.17,83.22,1104.96,94.23z M1022.21,210.78c3.18-0.96,6.4-1.82,9.61-2.7
	c69.4-19.2,139.47-35.32,210.87-45.11c69.72-9.56,139.7-13.76,210-8.06c37.67,3.06,75.06,8.37,111.73,17.65
	c15.33,3.88,30.25,9.38,45.35,14.14c-0.2,0.57-0.39,1.14-0.59,1.72c-21.3-5.21-42.6-10.41-63.9-15.62
	c-65.03-15.93-131.11-20.62-197.78-17.66c-72.1,3.21-143.02,14.99-213.29,30.99c-14.45,3.29-28.86,6.76-43.31,11.06
	c0.96,0.17,1.92,0.35,2.88,0.52c0.11,0.53,0.22,1.06,0.32,1.59c-26.89,5.36-53.77,10.71-80.66,16.07c-0.14-0.53-0.28-1.07-0.42-1.6
	C1016.09,212.76,1019.13,211.71,1022.21,210.78z M992.67,220.43c0.17,0.66,0.33,1.32,0.5,1.98c-21.85,6.36-43.7,12.72-65.55,19.08
	c-0.14-0.39-0.28-0.79-0.42-1.18c7.29-2.46,14.57-4.91,21.86-7.37c-0.09-0.31-0.19-0.61-0.28-0.92
	c-21.39,5.36-42.79,10.72-64.18,16.08C920.35,237.71,955.93,226.61,992.67,220.43z"/>
</svg>
