<?xml version="1.0" encoding="utf-8"?>
<!-- Generator: Adobe Illustrator 24.1.2, SVG Export Plug-In . SVG Version: 6.00 Build 0)  -->
<svg version="1.1" id="Calque_1" xmlns="http://www.w3.org/2000/svg" xmlns:xlink="http://www.w3.org/1999/xlink" x="0px" y="0px"
	 viewBox="0 0 1920 1080" style="enable-background:new 0 0 1920 1080;" xml:space="preserve">
<style type="text/css">
	.st0{fill:#303030;}
	.st1{fill:#7FCD5E;}
	.st2{display:none;}
	.st3{fill:#51633A;}
</style>
<rect x="-52.2" y="-29.4" class="st0" width="2024.4" height="1138.7"/>
<g>
	<path class="st1" d="M460.8,386.6c-3,2.8-5.7,5.5-8.7,8c-4.7,3.9-7.4,3.1-9-1.3c-3.8-0.5-7-0.8-9.9-1.7c-0.5-0.2-0.1-3.4-0.1-6
		c-4.9-4.5-4.5-5.6,2.9-8.5c-2.5-2.4-5.6-5.2-8.6-8c1.6-1.8,3.3-3.5,5.3-5.6c-0.5-0.9-1.9-2.7-2.6-4.7c-0.5-1.5-0.7-4,0.2-4.9
		c0.9-0.9,3.4-0.7,4.9-0.2c1.8,0.6,3.3,2.1,4.4,2.8c1.4-1.7,2.7-3.3,4-5c2.5,2.4,4.9,4.9,7.1,7c0.9-1.6,2.2-3.9,3.5-6.3
		c1.7,1.6,3.4,3.1,5.5,5c4-1.3,4.8-0.5,6,7.3c7.8,1,8.8,2.6,5.4,9.8c-1.5,3.1-3.4,6.1-4.9,9.2c-0.6,1.2-0.5,2.7-0.8,4.1
		c0.6,0.2,1.1,0.4,1.7,0.6c4.1-8,8.2-15.9,12.5-24.2c-3.1-0.2-6.5,0.7-8.1-0.6c-4.3-3.7-8-8.1-11.7-12.5c-1.3-1.5-1.9-3.6-2.8-5.4
		c-0.9-2-1.6-4.1-2.4-6.1c2.1-0.5,4.1-0.9,6.7-1.5c2.4-6.9,4.8-6.5,12.8,2.6c1.6-0.4,3.2-0.8,5.2-1.3c1.2-3.6-4.1-9.9,3.7-12.2
		c0.3-3.1,0.3-6.4,1.1-9.5c0.4-1.7,2.3-3,3.5-4.4c1.3,1.2,2.6,2.2,3.7,3.6c0.8,1,1.2,2.3,1.9,3.6c2.5-3.2,4.8-6.4,7.4-9.2
		c0.9-0.9,2.8-1.9,3.7-1.5c1,0.4,2,2.3,2.1,3.6c0.3,4.1,0.1,8.2,0.1,12.5c6.2,1.1,6.7,2.7,2,8.7c-1,1.3-2.2,2.5-3.6,4.1
		c4.6,2.4,2.5,4.7,0,6.7c0.7,2.1,1.4,4.1,2.3,6.7c1.9,0.7,7.3,0,2.7,5.7c1.5,0.6,3,1,4,1.9c1.6,1.4,2.9,3.3,4.3,4.9
		c-1.9,1.2-3.7,2.7-5.7,3.6c-1.4,0.7-3.2,0.6-4,0.8c-1,2.7-1.7,4.9-2.5,7.1c-2.3-1.1-4.6-2.1-7.1-3.3c-3.7,3.3-7,1.8-15.4-7.8
		c-4.5,9.2-8.9,18.3-13.4,27.6c2.8,1.7,4.9,1.8,8-0.1c5.3-3.2,11.3-5.6,17.1-7.7c1.8-0.7,4.3,0.4,6.5,0.7c-0.8,1.9-1.6,3.9-2.5,5.8
		c-0.2,0.4-0.5,0.8-0.6,0.9c2.5,1.8,4.9,3.5,7.3,5.1c-1.1,1.5-2.2,3-2.8,3.9c1.5,4.2,3.2,8.1,4.2,12.3c0.3,1-1.5,2.5-2.7,4.5
		c0.3,1.5,1.3,3.9,1.2,6.2c-0.1,2.5-0.7,5.3-2.2,7.1c-0.6,0.8-3.9-0.6-6.6-1.1c-5.4,4.7-8.5,2.2-13.4-12.1c-3,3-6.2,6.1-9.5,0.4
		c-0.6,0.6-1,1.2-1.6,1.5c-2.1,0.9-5.3,3-6.1,2.3c-1.7-1.4-3.3-4.6-2.8-6.6c1.6-6.1,4.1-12,6.7-19.3c-1.9,1.2-3.6,1.8-4.5,3
		c-3.7,4.9-7.1,10-10.7,14.9c-0.7,1-1.9,1.6-3.9,1.8c0.7-1.9,1.3-3.9,2.3-5.6c2.4-4.2,4.8-8.4,7.7-12.2
		C464,394,464,390.7,460.8,386.6z M476.6,394.6c10.7,5.4,16.9,10.6,18.7,15c-6.6-3.9-13.6-8.1-20.8-12.4c-4.1,7.7-9.9,13.7-7.7,22.1
		c0.7,0.4,1.5,0.9,2.2,1.3c1.6-2.4,3.3-4.9,5.2-7.6c1.9,2.4,3,3.8,4.9,6.3c1.8-3.3,3.1-5.9,4.9-9.4c0.7,1.9,1.2,3.2,1.6,4.5
		c1.4,3.9,2.6,7.9,4.2,11.6c0.6,1.3,2.4,1.9,3.6,2.9c0.7-1.3,1.4-2.6,2-3.9c0.2-0.5,0.3-1.1,0.5-2.1c2.4,2.1,4.4,3.7,6.3,5.4
		c0.5-0.3,1-0.6,1.6-0.9c-1.1-5-2.2-10-3.3-15.3c1.7,0.2,3.2,0.3,4.6,0.4c0.3-0.4,0.7-0.7,1-1.1c-3.1-4.2-6.2-8.4-9.5-12.8
		c2-0.3,4.2-0.6,6.4-1c0.1-0.4,0.1-0.7,0.2-1.1c-3.5-0.9-7-1.8-12.2-3.1c3.3-2.4,5.6-4,7.8-5.6c-0.3-0.5-0.6-1-1-1.5
		C491.1,389,484.4,391.6,476.6,394.6z M448.6,376.9c0.1,0.3,0.2,0.6,0.3,0.9c-5.1,1-10.3,1.9-15.4,2.9c0,0.6,0,1.1,0.1,1.7
		c2.3,0.4,4.6,0.8,7.4,1.3c-2.1,2.2-3.8,4.1-5.9,6.3c4.6,1.7,11.7-7.8,11.8,4.9c4.9-4,9-7.4,14-11.5c-6-6.3-11.8-12.3-18.3-19
		c10,3.4,15.9,10.4,21.5,18.5c2.4-5.1,4.5-9.7,6.9-14.9c-2.9,0-5,0-6.9,0c-0.7-2.9-1.3-5.5-2.2-9.6c-1.4,2.6-2.1,3.8-3.2,5.7
		c-1.4-3.8-2.3-6.3-3.1-8.9c-0.4,0-0.7,0.1-1.1,0.1c-0.5,3.7-1.1,7.3-1.8,12.3c-3.2-5.3-5.6-9.4-8-13.5c-0.4,0.2-0.9,0.3-1.3,0.5
		c0,2.7,0,5.4,0,8.5c-3.8-2.9-7.1-5.4-10.5-8c-0.4,0.5-0.9,1-1.3,1.4c2,3.3,4.1,6.5,6.1,9.8c-2.5,0.9-4.7,1.6-6.9,2.4
		c0,0.5,0,1,0,1.5C436.7,372.5,442.7,374.7,448.6,376.9z M493.9,328c0.6,0.3,1.1,0.5,1.7,0.8c-2,6.1-4,12.3-6.4,19.5
		c5.7-2.3,10.4-4.2,15.1-6.1c-0.1-0.3-0.2-0.6-0.4-1c-1.4-0.1-2.8-0.3-4.4-0.4c3.5-4.1,6.7-8,10-11.8c-0.3-0.3-0.7-0.6-1-0.9
		c-2.3,1-4.6,2.1-7.6,3.5c1.9-6.8,4.9-12.6,2.2-20.4c-3.6,5.4-6.4,9.6-9.5,14.2c-1.9-3.3-3.5-6.1-5.1-9c-0.5,0.2-0.9,0.3-1.4,0.5
		c0.4,5.6,0.7,11.3,1.1,17.7c-2.5-1.7-4.4-3-6.3-4.3c-0.4,0.2-0.8,0.4-1.1,0.6c1.6,4.8,3.2,9.6,4.8,14.4c0.4-0.1,0.8-0.2,1.2-0.3
		C489.2,339.3,491.6,333.6,493.9,328z M508.3,355.2c-0.1-0.4-0.2-0.8-0.3-1.1c-3,0.3-6,0.6-10.3,1.1c2.6-2.4,4.2-3.9,5.8-5.4
		c-6.3,0.6-12.5,1.3-17.2,6.2c4.9,1.1,9.1,2.1,13.3,3c-0.1,0.6-0.2,1.1-0.4,1.7c-4.6-0.7-9.3-1.4-13.9-2c-0.4,0.7-0.7,1.4-1.1,2.1
		c3.7,3.8,7.4,7.5,11,11.2c0.4-0.3,0.8-0.7,1.1-1c0.1-1.6,0.3-3.2,0.5-5.8c3,2.8,5.4,5.1,7.9,7.4c0.3-0.2,0.5-0.3,0.7-0.5
		c-0.6-2.1-1.2-4.3-1.9-6.8c4-0.3,7.7-0.5,11.4-0.8c0-0.6,0.1-1.1,0.1-1.7c-3.7-1.5-7.5-2.9-11.8-4.5
		C505.1,357,506.7,356.1,508.3,355.2z M458.2,340.8c-0.3,0.5-0.7,0.9-1,1.4c2.6,2,5.2,4,8,6.2c-0.4,0.7-1,1.7-2.1,3.4
		c3.9,1,7.1,1.8,10.7,2.8c-1.1,1.6-2.2,3.1-3.6,5c1.9,0.5,3.3,1.4,4.6,1.3c2.2-0.2,4.4-1,6.6-1.5c-1.2-1.8-2-3.9-3.5-5.4
		c-1.9-1.9-4.3-3.4-6.5-5c0.3-0.5,0.7-0.9,1-1.4c3.5,2.5,7,5.1,11,8c0.4-5.9-2.6-9.7-6.3-13.9c-0.3,2.1-0.5,3.6-0.8,5.3
		c-3.7-4-7.1-7.8-10.4-11.6c-0.4,0.3-0.8,0.6-1.2,0.9c0.1,2.2,0.2,4.4,0.3,7C462.3,342.3,460.2,341.6,458.2,340.8z"/>
</g>
<g>
	<path class="st1" d="M546.6,700.2c-6.4-1.9-13.4-2.3-20.4-0.1c-4.8,1.5-5.8-1.7-7-4.8c-1.3-3.2-1.1-5.6,2.7-7.2
		c10.7-4.4,23.5-1.4,31.4,7.4c2.2,2.5,10.4,2.8,12.8,0.6c14.5-13.6,34.9-9.6,43.4,8.8c2.2,4.8,3.6,10.5,3.8,15.8
		c0.6,10.6,3.1,20.5,6.9,30.4c1.7,4.4,2.6,9.2,3.2,13.9c0.7,5.4-1.9,9.6-6.3,12.8c-1.1,0.8-2,2.1-2.5,3.3
		c-2.8,7.6-9.3,11.2-17.5,9.1c-3.1-0.8-5.6-0.5-8.8,0.5c-3.9,1.2-9,0.8-12.8-0.8c-4.2-1.8-7.8-5.5-11.3-8.8
		c-8.4-7.8-16.4-16-24.8-23.9c-5.6-5.3-11.2-10.3-12.4-18.6c-1.2-8.2,2.5-17,9.3-21.6c1.4-0.9,2.3-2.7,3.2-4.3
		C541.9,708.8,544.1,704.7,546.6,700.2z M547.5,696.1c-1.7-1.4-3.3-2.8-5-4.2c-5.9-3.1-11.8-2.5-18.1-0.7c1,2.3,1.8,4.1,2.6,5.8
		c0.2-0.5,0.3-1,0.5-1.4c6.3,0.6,12.6,1.2,18.9,1.7C546.7,697.3,547.1,696.5,547.5,696.1z M619.7,765.1c0.4-0.1,0.8-0.3,1.1-0.4
		c-1.5-4.3-2.5-8.9-4.5-13c-4.7-9.6-7.1-19.6-6.9-30.3c0.1-6.8-1.6-13.1-5.4-18.9c-6.5-10-18.5-14.3-27.8-10.3
		c4.9,2.5,9.9,5.1,14.9,7.7c-0.2,0.4-0.3,0.8-0.5,1.1c-6.8-2.3-12.6-8.2-20.6-6c13.3,4.1,21.4,12.9,25.3,26
		c-6.1-11.4-12.9-21.8-27.6-23.8c4.6,2.6,9.3,4.6,13,7.7c3.6,3,6.6,7.1,9,11.2c2.3,4,3.5,8.6,5.3,13c-4.3-5.5-7.4-11.6-11.4-16.9
		c-6.2-8.2-14.7-12.1-25.3-11.2c-10.4,0.9-16.4,8.5-14.8,18.8c1.5,9.5,6.6,16.9,13.7,23c1.2,1.1,2.4,2.3,3.5,3.4
		c-0.5,0.4-0.9,0.8-1.4,1.2c-12.8-4.7-17.5-15.6-20.8-28c-0.6,1.9-0.8,3.8-0.1,5.2c3.5,7.1,7.3,14.2,11,21.2
		c-0.3,0.2-0.6,0.4-0.9,0.6c-4.5-7.6-9.1-15.3-13.6-22.9c-0.2,0.4-1.3,1.4-1.1,1.9c1.9,5.5,4,10.9,6.1,16.3c-1.8-1.9-3.1-4-4.3-6.3
		c-1.2-2.2-2.3-4.5-3.6-7.1c-3.3,9.4-0.3,17.6,7.8,24c6.3,4.9,12.5,9.9,18.3,15.4c5.2,4.9,9.4,10.8,14.5,15.8
		c2.8,2.7,6.5,4.3,9.9,6.5c0.3-0.4,0.5-0.8,0.8-1.2c-1.9-1.7-3.7-3.4-5.6-5.2c0.2-0.1,0.3-0.3,0.5-0.4c3.5,2.1,7,4.2,10.5,6.3
		c0.1-0.3,0.3-0.6,0.4-0.9c-4.7-4.5-9.4-9-14.1-13.5c0.4-0.4,0.8-0.8,1.2-1.2c2.2,2.5,4.4,5,6.6,7.5c0.1-0.1,0.2-0.2,0.3-0.3
		c-4.3-7.2-8.6-14.4-13-21.6c0.5-0.3,0.9-0.7,1.4-1.1c1.4,1.2,3.1,2.3,4.1,3.7c2.5,3.7,4.7,7.6,7,11.4c3.2,5.4,6.7,10.4,12.9,12.6
		c4.3,1.5,8.7,1.5,12.2-1.7c3.4-3,4.4-7,3-11.4c-1.4-4.2-2.9-8.5-4.5-12.6c-2.4-6.4-5-12.7-7.5-19.1c0.4-0.2,0.9-0.4,1.3-0.6
		c4,7.9,8,15.7,12,23.6c0.2-0.1,0.4-0.2,0.6-0.3c-0.7-2-1.3-4-2-6c0.5-0.2,1-0.3,1.5-0.5c1.7,5.1,3.4,10.2,5.1,15.2
		c0.5-0.1,0.9-0.1,1.3-0.2c-0.4-3.6-0.8-7.2-1.3-11.1C618.2,763.1,618.9,764.1,619.7,765.1z"/>
</g>
<g>
	<path class="st1" d="M1362.1,679.8c-0.6-7.2-1.8-12.8-1.3-18.3c0.3-3,2.8-6.8,5.4-8.5c3.1-2,6.7,0.2,9.2,3
		c2.7,3.1,3.3,7.1,0.8,10.1C1372.4,670.7,1367.6,674.6,1362.1,679.8z M1364.5,670.6c0.4,0.2,0.9,0.4,1.3,0.6c2.2-5,4.4-10,6.6-14.9
		c-0.6-0.3-1.2-0.5-1.8-0.8C1365.7,659.3,1365.7,665.2,1364.5,670.6z M1374.2,658c-2.2,4.5-4.2,8.7-6.4,13.1
		C1375,666.3,1376.4,663.4,1374.2,658z"/>
</g>
<path class="st2" d="M514,796.1c-5.1-1.4-10.2-2.9-15.2-4.3c0-0.3,0-0.5,0-0.8c3.4,0.3,6.9,0.6,10.3,0.9
	C510.6,793.3,512.3,794.7,514,796.1z"/>
<g>
	<path class="st1" d="M1166,363.7c-1.9,6.3-2.3,13.4-0.1,20.3c1.6,4.8-1.6,5.8-4.6,7.1c-3.4,1.5-5.9,1.1-7.5-2.9
		c-4.2-10.6-1.3-23.1,7.4-30.9c2.7-2.4,3-10.6,0.5-13.1c-12.1-12-10.1-30.3,4.1-40.5c6-4.3,12.9-6.4,20.1-6.6
		c11.7-0.3,22.5-3.7,33.3-7.7c4.5-1.7,10.1-3.4,14.4-2.1c8.6,2.4,15.8,8.3,21,15.5c2.1,3,0.7,8.5,0.9,12.8c0.1,1.4-0.5,3.1,0.1,4.1
		c3.8,5.8,2.7,11.6-0.6,16.9c-2.3,3.6-5.4,6.7-8.3,9.8c-7.8,8.2-15.8,16.2-23.5,24.4c-5.3,5.6-10.3,11.2-18.6,12.5
		c-8.3,1.2-17-2.4-21.6-9.3c-0.9-1.4-2.7-2.3-4.3-3.1C1174.6,368.4,1170.5,366.2,1166,363.7z M1162,362.8c-1.4,1.7-2.8,3.3-4.2,5
		c-3.2,5.8-2.3,11.7-0.9,18.1c2.3-0.9,4.2-1.7,6.1-2.5c-0.5-0.2-1-0.4-1.5-0.6c0.6-6.3,1.2-12.6,1.8-18.9
		C1163.2,363.6,1162.4,363.2,1162,362.8z M1189.3,375.7c3.1,2.7,6.2,0.1,9.1-1.1c3.1-1.3,5.9-3.1,8.9-4.7c0.2,0.4,0.4,0.7,0.6,1.1
		c-4.4,2.5-8.9,5-13.4,7.5c8.7,3,17.6,0.7,23.1-7.3c8.1-11.6,17.9-21.5,28.7-30.4c6.2-5.1,11.1-10.9,7.7-19.9
		c-4,5.9-8.2,11.9-15.6,14.5c3.1-2.7,6.1-5.3,9.2-8c-0.1-0.1-0.2-0.1-0.3-0.2c-7.3,4.4-14.5,8.7-21.8,13.1c-0.4-0.5-0.7-1-1.1-1.5
		c1.4-1.5,2.7-3.3,4.3-4.4c3.6-2.4,7.7-4.1,11-6.8c4.4-3.6,8.9-7.4,12.1-12.1c2.6-3.7,2.2-8.8-1-12.6c-3.1-3.7-7.2-4.7-11.7-3.2
		c-4.2,1.4-8.4,3-12.6,4.5c-6.3,2.4-12.6,4.9-18.9,7.3c-0.2-0.4-0.4-0.9-0.6-1.3c7.8-4,15.6-7.9,23.4-11.9c-0.1-0.2-0.2-0.4-0.3-0.7
		c-1.9,0.7-3.8,1.4-5.7,2c-0.2-0.5-0.3-1-0.5-1.5c5.1-1.7,10.2-3.4,15.3-5.1c0-0.4-0.1-0.8-0.1-1.2c-3.7,0.4-7.3,0.7-11.1,1.1
		c1-0.8,2-1.7,3.1-2.6c-4.3,0.4-8.4,1.2-12,3c-10.3,5.1-21.1,7.6-32.7,7.6c-9.7,0-18.2,3.7-24.5,11.4c-5.3,6.4-6.8,16.2-3.6,21.3
		c2.4-4.6,4.9-9.4,7.4-14.1c-6.1,18.2-6.1,18.2-4.1,20.6c3.6-13.2,12.4-21.2,25-25.4c-4.8,3.8-10.2,7-14.9,10.9
		c-5.1,4.2-7.7,10.1-8.4,15.3c3.6-4.8,7.4-11.1,12.4-16.1c5.2-5.2,12.2-7.9,20.7-9.1c-6.6,3.9-12.5,6.9-17.8,10.7
		c-8.5,6.2-12.6,14.8-11.6,25.5c0.9,10.4,8.5,16.5,18.8,14.9c9.5-1.5,16.9-6.6,23.1-13.7c1.1-1.3,2.3-2.4,3.4-3.6
		c-0.3,7.2-4.3,11.8-9.7,14.9c-5.3,3-11.3,5-16.9,7.4c1.6,0.6,3.5,0.8,5,0.1c7.2-3.5,14.2-7.3,21.2-10.9c0.2,0.3,0.4,0.6,0.6,0.8
		C1204.7,366.4,1197.2,370.9,1189.3,375.7z"/>
	<path class="st1" d="M1162,362.8c-1.5,5.1-2.9,10.2-4.4,15.4c-0.3,0-0.5,0-0.8,0.1c0.3-3.5,0.6-6.9,0.9-10.4
		C1159.2,366.2,1160.6,364.5,1162,362.8z"/>
</g>
<g>
	<path class="st1" d="M1600.7,616.2c5.6,2.5,10.9,4.8,16.7,7.4c-3,2.5-3,2.5-13.1-1c1.3,3.7,2.6,7.4,3.9,11.1
		c-0.7,0.4-1.4,0.7-2,1.1c-2.3-3.8-4.7-7.7-7.2-11.8c-0.1,2.5-0.2,4.7-0.3,6.9c-0.3,0.2-0.6,0.3-0.9,0.5c-1.1-1.5-2.2-3.1-3.3-4.7
		c-0.5,2.8-0.8,5.7-1.7,8.4c-0.3,0.9-1.9,1.3-3,1.9c-0.4-1-1.3-2.1-1.2-3c0.5-3.8,1.3-7.7,2-11.7c-8.7,3-17.8,4.3-27.1,1.9
		c-17.3-4.5-25.4-19.6-19.8-36.5c1.2-3.6,2.5-7.2,4.2-10.6c6.9-14.3,7.1-28.4-1.4-42.6c1.6-0.2,2.7-0.3,3.7-0.6c0.9-0.2,1.8-0.6,3-1
		c6.5,15.9,19.8,22.1,35.2,25.2c5.3,1.1,10.7,2.5,15.9,4c14.9,4.4,20.5,15.1,16,29.9C1616.9,602.1,1609.8,610.1,1600.7,616.2z
		 M1554.9,540.1c-0.3,0.3-0.7,0.5-1,0.7c0,0.6-0.2,1.3,0,1.9c3.7,10.8,2.4,21.2-2,31.5c-1.9,4.6-3.8,9.2-5.4,13.9
		c-4.7,14.5,1.9,27.2,16.4,31.8c21.8,7,50-9.2,55-31.6c2.9-12.8-1.5-20.5-14.1-24.3c-2.4-0.7-4.8-1.3-7.2-2
		C1581.1,558,1564.2,556.6,1554.9,540.1z"/>
	<path class="st1" d="M1578.7,617.2c-1.5-2.4-3.4-5.1-5-7.9c-7.2-12.3-13.6-37.1-11.9-49.1c1,5.9,1.5,12.1,3.2,17.8
		c3.1,10.2,7,20.2,10.7,30.3c1.4,3.9,3.9,5.3,8.4,4.1c10.3-2.7,10-2.3,7.2-12.2c-3-10.5-10.8-18.1-17.4-26.4c-1.1-1.4-2.2-2.8-3.9-5
		c10.8,6.3,23.4,26,25.2,39c1-0.5,2-1,3.2-1.7C1594.7,614.1,1585.1,611.3,1578.7,617.2z"/>
	<path class="st1" d="M1557.7,569.4c-3.2,17.2-6.1,34.3,10.3,47.4C1553.5,611.8,1548.4,588.5,1557.7,569.4z"/>
	<path class="st1" d="M1581.8,561.3c8,3.8,16.3,6.8,23.8,11.4c6.9,4.3,10.4,11.1,8.2,19.7c-0.5,2-1.8,3.8-3.4,5.5
		c3.7-9.1,3-17.2-5.2-23.1c-3.8-2.8-8.3-4.6-12.6-6.8c-3.8-1.9-7.6-3.5-11.4-5.3C1581.4,562.3,1581.6,561.8,1581.8,561.3z"/>
	<path class="st1" d="M1568.8,557.2c7.7,5.3,15.8,10.3,23.1,16.2c4.2,3.5,7,8.6,10.2,13.2c0.9,1.3,0.6,3.3,0.8,4.5
		c-3.2-4.7-6.1-10.1-10.1-14.4c-3.7-3.9-8.7-6.5-13.1-9.8c-3.9-2.9-7.8-6-11.7-8.9C1568.3,557.8,1568.5,557.5,1568.8,557.2z"/>
</g>
<g>
	<path class="st3" d="M813,378.4c-8.8,0.1-16.3-7.1-16.4-16c-0.2-12.2,6.6-20.8,16.7-20.9c9.5-0.1,16.7,7.6,16.8,17.9
		C830.2,369.9,822.7,378.3,813,378.4z M827.1,359.7c0.1-8.5-6.1-15.1-13.9-15.1c-7.8,0.1-13.9,6.9-13.9,15.8
		c-0.1,8.5,5.5,14.8,13.3,15C820.7,375.6,827,368.8,827.1,359.7z"/>
	<path class="st3" d="M819.3,353.6c-1.8,3.4-1.1,4.4,5,4.7c-3.1,1.6-8.1,2.1-3.3,6.6c-5.6-1.4-4.2,1.4-2.3,4.4c-2-1-3.6-2.5-4.9-2.3
		c-1.5,0.3-2.8,2-4,3c0.2-4.8-0.5-5.5-5.6-5.3c3.7-2.8,4.3-5.8,2.3-8.2c2.2-2,4.2-4,5.9-5.6C814.1,351.6,816.5,352.6,819.3,353.6z
		 M818.6,359.9c-2.4-2.3-4.5-5-5-4.7c-1.9,1-4,2.8-4.6,4.7c-0.3,1.1,2.3,4.4,3.3,4.3C814.3,363.9,815.9,361.9,818.6,359.9z"/>
</g>
<g>
	<path class="st3" d="M1459.4,388.2c9.5-0.1,16.7,7.6,16.9,17.9c0.1,10.5-7.4,18.9-17.1,19c-8.9,0.1-16.3-7.1-16.4-16
		C1442.5,397,1449.4,388.4,1459.4,388.2z M1445.4,407.4c0,8.5,5.7,14.7,13.5,14.8c8.1,0.1,14.4-6.8,14.3-15.9
		c0-8.3-5.9-14.7-13.6-14.9C1451.6,391.3,1445.4,398.3,1445.4,407.4z"/>
	<path class="st3" d="M1452.6,403.4c2.2-2,4.3-4,5.9-5.6c1.8,0.7,4.2,1.6,6.7,2.5c-1.5,3.4-0.7,4.6,5.2,4.8
		c-3.1,1.6-8.3,2.1-3.4,6.6c-5.6-1.5-3.9,1.5-2.3,4.4c-1.9-0.9-3.5-2.4-4.8-2.2c-1.5,0.2-2.8,2-3.9,3c0.2-4.7-0.6-5.5-5.7-5.3
		C1454.2,408.8,1454.5,405.8,1452.6,403.4z M1464.8,406.7c-2.4-2.3-4.5-4.9-5-4.7c-1.9,1-4,2.8-4.6,4.7c-0.3,1.1,2.4,4.4,3.4,4.3
		C1460.4,410.7,1462.1,408.7,1464.8,406.7z"/>
</g>
<g>
	<path class="st3" d="M391,583.7c-1.1,13.3-12.5,22.2-23.7,18.1c-6.5-2.4-10.8-8.5-10.7-15.3c0.1-9.7,4.2-16.9,11.1-19.6
		c6.4-2.4,14-0.8,18,4.8C388.2,575.2,389.3,579.6,391,583.7z M359.3,584.7c-0.1,8.8,5.7,15.1,13.7,15c7.9,0,14-6.7,14.1-15.6
		c0.1-8.4-6-15.2-13.9-15.1C365.4,569.1,359.4,575.9,359.3,584.7z"/>
	<path class="st3" d="M369.4,595.9c0.6-6-0.2-7-5.2-6.5c3.4-2.9,4.6-5.9,2-8.5c2.1-1.8,4.2-3.7,6.3-5.5c1.4,0.6,3.8,1.6,6.4,2.7
		c-1.2,2.7-1.3,5.7,5.3,4.3c-5.7,2.3-6.2,3.6-3.5,7c-4.2-0.7-4.3-0.6-2.7,4.4C373.9,589.9,372.7,590.1,369.4,595.9z M378.3,584.2
		c-2.1-2.1-3.4-3.5-4.7-4.8c-1.6,1.6-4.1,3-4.5,4.8c-0.3,1.2,2.3,4.2,3.8,4.4C374.3,588.7,376,586.2,378.3,584.2z"/>
</g>
<g>
	<path class="st1" d="M962,784.4c0.7-13.2,4.4-28.6,17.4-40.1c11-9.8,25.4-12,37.8-4.3c12.1,7.6,24.7,13.7,38.1,18.7
		c18.7,6.9,25.7,23.5,19.6,43c-7.9,25.3-25.7,38.8-51.7,41.4c-19.6,2-43.2-7.6-54.8-28.7C964.4,807.2,962,797.4,962,784.4z
		 M965,787.2c1.2,6.2,1.6,12.5,3.6,18.5c7,20.9,27.3,34.8,49.7,34.7c24.4-0.1,45.1-14.5,52.7-36.8c7-20.6-0.4-38.9-23.2-44.4
		c-6.5-1.5-12.5-5.1-18.5-8.1c-4.4-2.3-8.3-5.4-12.7-7.9c-12.4-7.1-26.4-5.2-36.6,4.8C969.1,758.7,966,772.3,965,787.2z"/>
	<path class="st1" d="M971.8,788c1.6-5.3,3.1-14.3,6.8-22.3c4.5-9.8,13.8-14.5,24.2-16.4c5.6-1,10.5,1.2,14.5,5.1
		c7.6,7.2,7.3,15-0.7,21.8c-3.1,2.6-6.2,5-9,7.9c-3.6,3.7-4.9,8.2-3,13.3c0.6,1.7,0.9,3.5,1.4,5.3c1.8,6.8-0.5,12.9-6.1,16.5
		c-5.7,3.6-12,3.1-17.5-1.5C974.4,810.8,972.8,801.4,971.8,788z M1004.7,751.9c-9.7,2.5-18.2,6-22.8,15.1
		c-4.7,9.2-6.6,19.2-5.8,29.4c0.6,7.5,2.7,14.8,9.5,19.5c4.1,2.8,8.4,3.2,12.6,0.5c4.2-2.7,5.9-6.6,4.8-11.6
		c-0.4-1.8-0.7-3.6-1.2-5.3c-2.8-8.6,0.1-15.3,6.7-20.8c2.6-2.1,5.4-3.9,7.8-6.2c5.4-5,5-12.5-1.3-16.5
		C1012,754.1,1008.1,753.2,1004.7,751.9z"/>
	<path class="st1" d="M1062.6,793.4c-0.3,9.8-2.6,18.5-7.9,26.3c-6.3,9.2-18.8,14.3-28.7,11.9c-12.3-3.1-17.3-17-9.6-27.2
		c1.5-2,3.1-3.9,4.8-5.7c3.7-4,4.6-8.6,4.1-13.8c-0.3-3.6-0.6-7.4,0.1-10.9c1.2-5.7,5.2-9.5,10.9-10.3c7.3-1,13.9,1.1,18.8,7
		C1060.9,777.4,1062.2,785.5,1062.6,793.4z M1060.8,794.5c-2.2-6.9-3.4-13.5-6.3-19.2c-3.8-7.5-12.3-10.8-18.8-8.4
		c-6.4,2.3-8.8,7.9-7.2,17.6c1,5.6-0.2,10.5-3.6,15c-2.3,3-5,5.9-6.8,9.2c-5.1,9.5,1.4,20.7,12.2,20.4c9.7-0.3,18.6-3.4,23-13
		C1056.4,809.2,1058.3,801.8,1060.8,794.5z"/>
	<path class="st1" d="M1009.1,798.3c-2.4-4.4-0.1-11.6,4.6-13.9C1012.2,788.8,1010.5,793.9,1009.1,798.3z"/>
	<path class="st1" d="M997.3,786.4c-4.8,2.1-9,0.8-12.8-1.6c-0.9-0.6-1.6-2.8-1.2-3.7c0.4-1,2.4-2.3,3.4-2.1
		C991,779.8,995.1,781.4,997.3,786.4z"/>
	<path class="st1" d="M1004.6,775.1c-4.6-1.7-7.3-4.8-8.7-9c-0.4-1.1,0.2-3.4,1-3.7c1.2-0.5,3.4-0.5,4.3,0.3
		C1004.9,765.9,1005.5,770.1,1004.6,775.1z"/>
	<path class="st1" d="M997.8,801c-2.4,2.3-4.5,4.9-7.2,6.6c-1,0.6-3.4-0.8-5.1-1.3c0.5-1.5,0.6-3.8,1.7-4.4c2.8-1.6,5.9-2.4,8.9-3.5
		C996.7,799.2,997.3,800.1,997.8,801z"/>
	<path class="st1" d="M1032.2,786.2c1.8-6.4,6.4-10.3,11.5-9.7c1.4,0.2,3.2,1.3,3.8,2.5c0.4,0.8-0.4,2.8-1.3,3.8
		C1043.6,786,1038.2,787.2,1032.2,786.2z"/>
	<path class="st1" d="M1028.3,805.1c2.8,4.3,5.6,7.6,7.3,11.4c1.3,2.7,1.2,6.2-2.4,7.6c-3.6,1.3-5.3-1.4-6.2-4.1
		C1025.4,815.6,1023.4,810.9,1028.3,805.1z M1029.1,809.8c-0.5,0.2-1,0.3-1.5,0.5c0.6,3,1.1,6.2,1.9,9.1c0.3,0.8,1.9,1.3,2.9,1.9
		c0.3-1.2,1.1-2.5,0.8-3.4C1032,815.1,1030.4,812.5,1029.1,809.8z"/>
	<path class="st1" d="M1033.3,795.7c4.3,0.4,8.7,0.2,12.7,1.4c1.8,0.6,2.6,4.2,3.8,6.4c-2.2,0.6-4.8,2.2-6.5,1.6
		c-3.9-1.6-7.3-4.3-10.9-6.5C1032.7,797.6,1033,796.7,1033.3,795.7z M1038.8,797.7c-0.3,0.7-0.6,1.3-0.9,2c2.8,1.2,5.7,2.3,8.5,3.5
		c0.3-0.8,0.6-1.6,0.9-2.4C1044.5,799.7,1041.6,798.7,1038.8,797.7z"/>
</g>
</svg>
