<?xml version="1.0" encoding="utf-8"?>
<!-- Generator: Adobe Illustrator 24.1.2, SVG Export Plug-In . SVG Version: 6.00 Build 0)  -->
<svg version="1.1" id="Calque_1" xmlns="http://www.w3.org/2000/svg" xmlns:xlink="http://www.w3.org/1999/xlink" x="0px" y="0px"
	 viewBox="0 0 1224.56 467.03" style="enable-background:new 0 0 1224.56 467.03;" xml:space="preserve">
<style type="text/css">
	.st0{fill:#FFFFFF;}
</style>
<g>
	<g>
		<path class="st0" d="M319.48,289.3c7.66-9.79,15.26-18.65,21.91-28.17c19.45-27.85,38.56-55.94,57.64-84.05
			c1.1-1.62,1.57-4.54,0.92-6.34c-13.58-37.24-6.13-69.57,22.97-96.39c19.1-17.61,40.92-30.85,66.64-36.6
			c6.26-1.4,12.41-2.3,19.16-1.03c12.19,2.29,19.07,9.38,22.71,20.51c3.88,11.87,3.61,24.03,1.66,36.11
			c-3.12,19.36-8.92,37.91-18.46,55.15c-17.72,32-44.73,47.43-81.41,44.94c-4.91-0.33-8.04,1.1-11.2,4.55
			c-31.02,33.83-59.48,69.69-85.93,107.18c-1.96,2.77-1.55,4.5,0.48,6.84c18.44,21.27,36.92,42.51,55.09,64.01
			c6,7.09,11.93,14.46,16.52,22.48c8.84,15.45-2.5,33.18-20.36,31.97c-4.2-0.29-9.49-2.68-12.02-5.89
			c-7.07-8.96-13.53-18.53-19.2-28.45c-11.31-19.81-21.92-40.02-32.86-60.04c-1.09-2-2.42-3.86-4.23-6.72
			c-6.24,10.04-12.11,19.25-17.75,28.6c-10.75,17.82-21.15,35.87-32.19,53.51c-3.39,5.42-7.96,10.3-12.71,14.63
			c-6.42,5.85-14.16,6.17-21.79,2.02c-15.23-8.28-18.79-20.75-8.59-34.85c7.48-10.34,16.35-19.73,25.01-29.15
			c16.47-17.9,33.18-35.57,49.93-53.2c2.99-3.15,3.44-5.46,0.87-9.31c-22.61-33.83-46.41-66.77-73.12-97.51
			c-1.67-1.93-4.42-3.36-6.93-4.05c-8.16-2.22-14.79-6.77-20.71-12.54c-14.2-13.85-24.66-30.54-35.52-46.92
			c-15.1-22.77-30.34-45.44-45.52-68.15c-0.56-0.83-1.31-1.59-1.63-2.5s-0.22-1.98-0.31-2.98c1.07,0.31,2.55,0.28,3.14,1
			c4.59,5.5,9.17,11.02,13.46,16.76c14.46,19.36,28.75,38.83,43.2,58.19c2.48,3.33,5.13,6.63,8.2,9.38c1.7,1.52,4.45,1.88,6.73,2.76
			c-0.14-2.34,0.49-5.12-0.55-6.96c-4.18-7.38-8.6-14.65-13.43-21.61c-14.99-21.64-30.21-43.12-45.32-64.67
			c-0.94-1.33-1.76-2.74-2.64-4.12c0.29-0.47,0.57-0.93,0.86-1.4c1.27,0.75,2.92,1.21,3.76,2.29
			c11.12,14.35,22.21,28.74,33.15,43.23c8.83,11.7,17.35,23.64,26.22,35.31c2.29,3.01,5.26,5.55,8.14,8.04
			c0.8,0.69,3.05,1.03,3.5,0.52c0.8-0.9,1.38-2.86,0.92-3.87c-1.97-4.39-3.9-8.91-6.64-12.82c-17.81-25.36-35.84-50.56-53.79-75.82
			c-0.95-1.34-1.9-2.69-2.83-4.02c2.2-3.36,3.71-1.67,5.31,0.39c13.77,17.78,27.55,35.55,41.34,53.32
			c7.25,9.34,14.37,18.78,21.82,27.96c2.05,2.52,4.63,6.45,8.4,4.04c1.01-0.64,0.02-6.47-1.61-8.86
			c-10.89-15.94-22.11-31.65-33.4-47.3c-8.58-11.89-17.41-23.59-26.14-35.37c-1.57-2.12-3.21-4.21,1.23-5.8
			c6.1,7.48,12.42,14.96,18.45,22.66c17.96,22.96,36.07,45.81,53.58,69.12c8.2,10.92,15.22,22.8,17.94,36.5
			c0.83,4.17,1.14,8.71,0.38,12.85c-0.74,4.01,0.17,6.98,2.03,10.3c18.45,32.88,39.17,64.3,61.32,94.78
			C316.44,285.37,317.67,286.92,319.48,289.3z"/>
		<path class="st0" d="M145.3,229.23c26.97,31.5,61.76,52.74,98.5,71.34c-0.05,0.46-0.09,0.92-0.14,1.38
			c-6.12,0.44-12.23,1.03-18.36,1.3c-22.12,0.98-44.04-0.45-65.15-7.56c-30.06-10.13-49.45-31.2-59.67-60.8
			c-5.53-16.01-8.78-32.48-5.99-49.59c1.15-7.08,2.61-8.77,9.85-9.64c18.53-2.23,35.55,3.32,52.1,10.7
			c21.84,9.73,37.96,26.26,51.95,44.99c12.75,17.08,24.88,34.62,37.25,51.97c1.14,1.6,2.06,3.36,3.09,5.04
			c-0.27,0.39-0.54,0.79-0.81,1.18c-17.45-9.44-35.19-18.39-52.28-28.44C178.49,251.02,161.97,239.85,145.3,229.23z"/>
		<path class="st0" d="M405.14,301.31c38.37-19.13,73.11-40.65,100.09-72.78c-31.61,24.63-67.22,42.38-103.38,59.95
			c1.78-2.86,3.36-5.87,5.37-8.56c16.32-21.87,31.8-44.44,49.33-65.3c19.26-22.91,45.04-35.38,74.85-38.9
			c5.37-0.63,10.9-0.17,16.34,0.15c4.52,0.27,7.14,2.86,7.91,7.52c3.03,18.42,0.2,36.22-6.16,53.44
			c-14.62,39.6-44.39,59.58-85.28,64.85c-18.26,2.35-36.52,2.35-54.81,0.4C408.45,301.99,407.51,301.75,405.14,301.31z"/>
		<path class="st0" d="M170.16,368.94c20.24-23.65,46.36-39.59,73.93-53.55c-0.03-0.35-0.07-0.69-0.1-1.04
			c-4.59-0.33-9.18-0.77-13.78-0.98c-16.6-0.74-33.05,0.34-48.9,5.67c-22.56,7.6-37.12,23.42-44.79,45.63
			c-4.15,12.01-6.59,24.38-4.5,37.22c0.87,5.31,1.96,6.58,7.4,7.24c13.91,1.67,26.68-2.5,39.11-8.03
			c16.39-7.3,28.49-19.71,38.99-33.77c9.57-12.82,18.67-25.98,27.96-39.01c0.86-1.2,1.55-2.52,2.32-3.78
			c-0.2-0.3-0.41-0.59-0.61-0.89c-13.1,7.08-26.41,13.81-39.24,21.35C195.07,352.59,182.67,360.97,170.16,368.94z"/>
		<path class="st0" d="M405.19,314.84c28.8,14.36,54.87,30.51,75.13,54.63c-23.73-18.49-50.46-31.81-77.6-45
			c1.34,2.15,2.52,4.4,4.03,6.42c12.25,16.41,23.87,33.36,37.03,49.01c14.46,17.2,33.8,26.56,56.18,29.2
			c4.03,0.48,8.18,0.13,12.27-0.12c3.4-0.2,5.36-2.14,5.93-5.64c2.27-13.82,0.15-27.19-4.63-40.11
			c-10.97-29.72-33.32-44.72-64.01-48.67c-13.71-1.77-27.41-1.76-41.14-0.3C407.68,314.33,406.97,314.51,405.19,314.84z"/>
		<path class="st0" d="M144.79,309.03c-22.33-2.3-44.51-3.25-66.39,2.68c21.41,1.43,42.83,2.86,64.24,4.3
			c0.05,0.52,0.1,1.03,0.15,1.55c-5.76,2.4-11.39,5.25-17.32,7.11c-13.61,4.28-27.17,9.11-41.12,11.79
			c-15.53,2.98-30.45-0.98-43.93-9.39c-6.43-4.01-6.96-6.16-3.17-12.62c13.72-23.41,42.69-39.24,73.36-26.92
			C123.28,292.61,134.47,299.9,144.79,309.03z"/>
		<path class="st0" d="M502.28,315.89c21.86-1.37,43.73-2.73,66.46-4.15c-22.91-6.39-45.56-4.76-68.75-3.57
			c5.49-3.89,10.79-8.07,16.5-11.62c13.32-8.29,27.4-14.6,43.64-13.05c22.19,2.12,37.79,14.17,48.66,33.07
			c2.68,4.66,0.14,7.56-3.48,9.94c-13.01,8.55-27.52,12.2-42.79,10.42c-21.31-2.48-40.82-11.2-60.44-19.27
			C502.16,317.06,502.22,316.48,502.28,315.89z"/>
	</g>
	<g>
		<path class="st0" d="M714.73,119.79h24.57v113.72h-24.57v-47.14H675.8v47.14h-24.57V119.79h24.57v45.52h38.93V119.79z"/>
		<path class="st0" d="M821.9,119.47v21.06h-36.49v24.46h32.18v21.06h-32.18v26.41h36.49v21.06h-61.06V119.47H821.9z"/>
		<path class="st0" d="M907.09,233.52l-5.6-19.12h-36.2l-5.6,19.12h-26.15l35.05-114.05h29.88l34.91,114.05H907.09z M871.47,193.34
			h23.85l-11.92-40.5L871.47,193.34z"/>
		<path class="st0" d="M945.45,119.79h24.57v92.66h30.6v21.06h-55.17V119.79z"/>
		<path class="st0" d="M1007.37,140.85v-21.06h79.59v21.06h-27.58v92.66h-24.57v-92.66H1007.37z"/>
		<path class="st0" d="M1165.12,119.79h24.57v113.72h-24.57v-47.14h-38.93v47.14h-24.57V119.79h24.57v45.52h38.93V119.79z"/>
		<path class="st0" d="M651.23,372.52V258.79h65.66v21.06H675.8v24.46h30.74v21.06H675.8v47.14H651.23z"/>
		<path class="st0" d="M742.96,357.13c-10.01-11.02-15.01-24.95-15.01-41.8c0-16.85,5-30.75,15.01-41.72
			c10.01-10.96,22.27-16.44,36.78-16.44s26.72,5.48,36.63,16.44c9.91,10.96,14.87,24.87,14.87,41.72c0,16.85-4.98,30.78-14.94,41.8
			c-9.96,11.02-22.17,16.52-36.63,16.52C765.2,373.65,752.97,368.14,742.96,357.13z M798.99,339.14c4.84-5.94,7.26-13.88,7.26-23.81
			c0-9.94-2.42-17.87-7.26-23.81c-4.84-5.94-11.3-8.91-19.39-8.91c-8.09,0-14.56,2.97-19.4,8.91c-4.84,5.94-7.26,13.88-7.26,23.81
			c0,9.94,2.42,17.88,7.26,23.81c4.84,5.94,11.3,8.91,19.4,8.91C787.69,348.05,794.15,345.08,798.99,339.14z"/>
		<path class="st0" d="M856.17,357.13c-10.01-11.02-15.01-24.95-15.01-41.8c0-16.85,5-30.75,15.01-41.72
			c10.01-10.96,22.27-16.44,36.78-16.44c14.51,0,26.72,5.48,36.64,16.44c9.91,10.96,14.87,24.87,14.87,41.72
			c0,16.85-4.98,30.78-14.94,41.8c-9.96,11.02-22.17,16.52-36.63,16.52C878.41,373.65,866.17,368.14,856.17,357.13z M912.2,339.14
			c4.84-5.94,7.26-13.88,7.26-23.81c0-9.94-2.42-17.87-7.26-23.81c-4.84-5.94-11.3-8.91-19.39-8.91c-8.09,0-14.56,2.97-19.4,8.91
			c-4.84,5.94-7.26,13.88-7.26,23.81c0,9.94,2.42,17.88,7.26,23.81c4.84,5.94,11.3,8.91,19.4,8.91
			C900.89,348.05,907.36,345.08,912.2,339.14z"/>
		<path class="st0" d="M995.74,258.79c16.09,0,29.31,5.26,39.65,15.79c10.34,10.53,15.52,24.19,15.52,40.99
			c0,16.79-5.17,30.48-15.52,41.07c-10.34,10.59-23.56,15.88-39.65,15.88h-35.49V258.79H995.74z M984.82,351.46h10.92
			c9.38,0,16.76-3.24,22.12-9.72c5.36-6.48,8.05-15.17,8.05-26.08c0-10.91-2.68-19.6-8.05-26.08c-5.37-6.48-12.74-9.72-22.12-9.72
			h-10.92V351.46z"/>
	</g>
</g>
</svg>
